<?xml version="1.0" encoding="UTF-8" standalone="no"?>
<!-- Created with Inkscape (http://www.inkscape.org/) -->

<svg
   version="1.1"
   id="svg2"
   width="15.939939"
   height="20.021067"
   viewBox="0 0 15.939938 20.021067"
   sodipodi:docname="coffee_grain.svg"
   inkscape:version="1.1.2 (0a00cf5339, 2022-02-04)"
   xmlns:inkscape="http://www.inkscape.org/namespaces/inkscape"
   xmlns:sodipodi="http://sodipodi.sourceforge.net/DTD/sodipodi-0.dtd"
   xmlns="http://www.w3.org/2000/svg"
   xmlns:svg="http://www.w3.org/2000/svg">
  <defs
     id="defs6" />
  <sodipodi:namedview
     id="namedview4"
     pagecolor="#ffffff"
     bordercolor="#666666"
     borderopacity="1.0"
     inkscape:pageshadow="2"
     inkscape:pageopacity="0.0"
     inkscape:pagecheckerboard="0"
     showgrid="false"
     inkscape:zoom="2.7647875"
     inkscape:cx="-43.58382"
     inkscape:cy="-44.84974"
     inkscape:window-width="1844"
     inkscape:window-height="1043"
     inkscape:window-x="0"
     inkscape:window-y="0"
     inkscape:window-maximized="1"
     inkscape:current-layer="layer27"
     showborder="true"
     fit-margin-top="0"
     fit-margin-left="0"
     fit-margin-right="0"
     fit-margin-bottom="0" />
  <g
     inkscape:groupmode="layer"
     id="layer21"
     inkscape:label="coffee cup"
     style="display:inline"
     transform="translate(-169.54206,-133.548)"
     sodipodi:insensitive="true">
    <g
       inkscape:groupmode="layer"
       id="layer27"
       inkscape:label="coffee label"
       style="display:inline"
       sodipodi:insensitive="true">
      <path
         style="display:inline;fill:#8c6450;fill-opacity:1;stroke:#462828;stroke-width:0.9;stroke-linecap:round;stroke-linejoin:round;stroke-miterlimit:4;stroke-dasharray:none;stroke-opacity:1"
         d="m 171.7072,151.77661 c -5.52375,-6.95394 3.7487,-15.43373 7.30751,-17.19169 2.90303,-1.43403 4.83407,-0.0559 5.54104,2.00575 1.92364,5.60958 -2.11867,16.02018 -10.93449,16.5284 0.56586,-2.27628 1.72578,-4.8016 2.74169,-7.13386 4.67019,1.62101 5.04571,0.68311 0.99943,-1.92254 2.27516,-4.29198 4.03506,-7.71409 4.03506,-7.71409 0,0 -2.82506,2.95824 -5.484,6.88561 -5.50532,-2.45068 -1.99553,0.83028 -1.15643,1.79516 -1.31814,2.15995 -2.4733,4.50117 -3.04983,6.74725 z"
         id="path14077"
         sodipodi:nodetypes="cssccccccc" />
    </g>
  </g>
</svg>
