<?xml version="1.0" encoding="UTF-8"?>
<!-- Generator: Adobe Illustrator 25.2.3, SVG Export Plug-In . SVG Version: 6.00 Build 0)  -->
<svg version="1.1" id="Layer_1" xmlns="http://www.w3.org/2000/svg" xmlns:xlink="http://www.w3.org/1999/xlink" x="0px" y="0px" viewBox="0 0 30 30" style="enable-background:new 0 0 30 30;" xml:space="preserve">
<style type="text/css">
	.st0{fill:none;stroke:#000000;stroke-width:2;stroke-miterlimit:10;}
	.st1{fill:#2867B2;}
</style>
<path class="st1" d="M30,2.15c0-0.11-0.01-0.22-0.03-0.33c-0.15-1-1.07-1.81-2.2-1.8c-4.26,0.02-8.52,0.01-12.77,0.01  c-3.26,0-6.51,0-9.77,0c-1.03,0-2.06-0.01-3.09,0C0.92,0.04,0,0.98,0,2.19c0,8.54,0,17.08,0,25.62c0,0.21,0.03,0.43,0.09,0.63  c0.28,0.97,1.09,1.54,2.15,1.54c8.5,0,16.99,0,25.49,0c0.07,0,0.15,0,0.22,0C29.1,29.94,30,29,30,27.86C30,19.29,30,10.72,30,2.15z   M8.92,18.4c0,2.28,0,4.56,0,6.85c0,0.37,0,0.37-0.38,0.37c-1.27,0-2.54,0-3.82,0c-0.24,0-0.34-0.06-0.34-0.33  c0.01-4.58,0.01-9.16,0-13.75c0-0.26,0.08-0.33,0.33-0.33c1.29,0.01,2.58,0.01,3.87,0c0.26,0,0.33,0.08,0.33,0.34  C8.92,13.83,8.92,16.12,8.92,18.4z M6.66,9.3c-1.45,0-2.6-1.14-2.61-2.58c0-1.46,1.15-2.62,2.6-2.62c1.45,0,2.61,1.16,2.61,2.62  C9.26,8.15,8.11,9.3,6.66,9.3z M25.26,25.62c-1.27-0.01-2.55-0.01-3.82,0c-0.29,0-0.36-0.1-0.36-0.38c0.01-2.36,0.02-4.71,0-7.07  c-0.01-0.6-0.06-1.22-0.19-1.8c-0.23-1-0.91-1.51-1.94-1.52c-0.33,0-0.68,0.01-1,0.09c-1.04,0.26-1.48,1.04-1.65,2.01  c-0.08,0.47-0.11,0.95-0.12,1.42c-0.01,2.29-0.01,4.58,0,6.88c0,0.29-0.08,0.37-0.36,0.37c-1.27-0.01-2.55-0.01-3.82,0  c-0.29,0-0.36-0.09-0.36-0.37c0.01-4.56,0.01-9.11,0-13.67c0-0.28,0.07-0.37,0.36-0.37c1.23,0.02,2.45,0.01,3.68,0  c0.27,0,0.34,0.09,0.33,0.34c-0.02,0.51,0,1.03,0,1.62c0.7-1.1,1.6-1.82,2.78-2.13c1.44-0.38,2.86-0.25,4.21,0.35  c1.36,0.61,2,1.79,2.33,3.18c0.24,1.01,0.29,2.05,0.29,3.09c-0.01,2.54-0.01,5.07,0,7.61C25.61,25.54,25.54,25.62,25.26,25.62z"/>
</svg>