<?xml version="1.0" encoding="UTF-8" standalone="no"?>
<svg
   width="850"
   height="675"
   viewBox="0 0 850 675.00002"
   version="1.1"
   id="svg162"
   sodipodi:docname="frontend_montains.svg"
   inkscape:version="1.1.2 (0a00cf5339, 2022-02-04)"
   xmlns:inkscape="http://www.inkscape.org/namespaces/inkscape"
   xmlns:sodipodi="http://sodipodi.sourceforge.net/DTD/sodipodi-0.dtd"
   xmlns="http://www.w3.org/2000/svg"
   xmlns:svg="http://www.w3.org/2000/svg"
   xmlns:rdf="http://www.w3.org/1999/02/22-rdf-syntax-ns#"
   xmlns:cc="http://creativecommons.org/ns#"
   xmlns:dc="http://purl.org/dc/elements/1.1/">
  <defs
     id="defs166" />
  <sodipodi:namedview
     id="namedview164"
     pagecolor="#ffffff"
     bordercolor="#666666"
     borderopacity="1.0"
     inkscape:pageshadow="2"
     inkscape:pageopacity="0.0"
     inkscape:pagecheckerboard="0"
     showgrid="false"
     inkscape:zoom="0.73900854"
     inkscape:cx="470.22461"
     inkscape:cy="228.68477"
     inkscape:window-width="1844"
     inkscape:window-height="1043"
     inkscape:window-x="0"
     inkscape:window-y="0"
     inkscape:window-maximized="1"
     inkscape:current-layer="layer1" />
  <title
     id="title2">Easy to Use</title>
  <g
     inkscape:groupmode="layer"
     id="layer1"
     inkscape:label="background"
     style="display:inline">
    <g
       id="Group_12"
       data-name="Group 12"
       transform="translate(-176.84185,-52.52778)">
      <g
         id="Group_11"
         data-name="Group 11"
         transform="translate(57,56)">
        <path
           id="Path_83"
           data-name="Path 83"
           d="m 1017.81,560.461 c -5.27,45.15 -16.22,81.4 -31.25,110.31 -20,38.52 -54.21,54.04 -84.77,70.28 a 193.275,193.275 0 0 1 -27.46,11.94 c -55.61,19.3 -117.85,14.18 -166.74,3.99 A 657.282,657.282 0 0 0 603.5,743.821 q -14.97,-0.675 -29.97,-0.67 c -15.42,0.02 -293.07,5.29 -360.67,-131.57 -16.69,-33.76 -28.13,-75 -32.24,-125.27 -11.63,-142.12 52.29,-235.46 134.74,-296.47 155.97,-115.41 369.76,-110.57 523.43,7.88 102.36,78.9 198.2,198.31 179.02,362.74 z"
           fill="#3f3d56"
           transform="translate(-56,-106.019)" />
        <path
           id="Path_84"
           data-name="Path 84"
           d="m 896.42558,605.51939 c -4.77195,4.91601 -12.88114,14.83397 -26.57793,22.56118 -19.62861,8.84994 -78.30102,36.41887 -127.19102,33.37407 -33.68073,-1.33463 -33.8256,-1.59906 -59.50988,-4.50794 -11.26995,-0.76332 -69.99396,-13.22013 -77.40053,-13.62707 -8.11718,-0.81495 -91.00761,-5.71294 -106.42094,-5.37631 -154.61223,-1.19083 -251.10521,-35.61108 -308.10905,-86.91831 l 155.09775,-94.47175 62.95,48.29228 20.09,15.41526 55.37,-22.70307 28.59,-11.72175 130.2,44.60236 36.8,-24.28374 c 89.66474,21.85757 158.98891,39.77111 248.65487,61.62367 -11.64466,21.36171 -26.61364,32.36283 -32.54327,37.74112 z"
           fill="#f2f2f2"
           style="stroke-width:0.546629"
           sodipodi:nodetypes="cccccccccccccccc" />
        <path
           id="Path_85"
           data-name="Path 85"
           d="m 322.31398,487.9276 26,-17.03179 36,24.80067 -31,-17.92819 z"
           opacity="0.1"
           style="stroke-width:0.546629" />
        <path
           id="Path_86"
           data-name="Path 86"
           d="m 688.86733,657.35136 c -18.11494,-1.28284 -60.11838,-10.8805 -72.61932,-12.70113 L 429.35398,520.2611 Z"
           opacity="0.1"
           style="stroke-width:0.546629"
           sodipodi:nodetypes="cccc" />
        <path
           id="Path_87"
           data-name="Path 87"
           d="m 485.15181,502.42331 28.16217,-11.50768 130,44.82049 -130.54376,-36.70205 z"
           opacity="0.1"
           style="stroke-width:0.546629"
           sodipodi:nodetypes="ccccc" />
        <path
           id="Path_88"
           data-name="Path 88"
           d="m 902.86058,599.4707 c -3.60182,3.65471 -11.15227,10.62303 -17.81831,17.01292 L 643.51398,530.43834 Z"
           opacity="0.1"
           style="stroke-width:0.546629"
           sodipodi:nodetypes="cccc" />
        <circle
           id="Ellipse_11"
           data-name="Ellipse 11"
           cx="3"
           cy="3"
           r="3"
           transform="translate(479,98.962)"
           fill="#f2f2f2" />
        <circle
           id="Ellipse_12"
           data-name="Ellipse 12"
           cx="3"
           cy="3"
           r="3"
           transform="translate(396,201.962)"
           fill="#f2f2f2" />
        <circle
           id="Ellipse_13"
           data-name="Ellipse 13"
           cx="2"
           cy="2"
           r="2"
           transform="translate(600,220.962)"
           fill="#f2f2f2" />
        <circle
           id="Ellipse_14"
           data-name="Ellipse 14"
           cx="2"
           cy="2"
           r="2"
           transform="translate(180,265.962)"
           fill="#f2f2f2" />
        <circle
           id="Ellipse_15"
           data-name="Ellipse 15"
           cx="2"
           cy="2"
           r="2"
           transform="translate(612,96.962)"
           fill="#f2f2f2" />
        <circle
           id="Ellipse_16"
           data-name="Ellipse 16"
           cx="2"
           cy="2"
           r="2"
           transform="translate(736,192.962)"
           fill="#f2f2f2" />
        <circle
           id="Ellipse_17"
           data-name="Ellipse 17"
           cx="2"
           cy="2"
           r="2"
           transform="translate(858,344.962)"
           fill="#f2f2f2" />
        <path
           id="Path_89"
           data-name="Path 89"
           d="m 306,121.222 h -2.76 v -2.76 h -1.48 v 2.76 H 299 v 1.478 h 2.76 v 2.759 h 1.48 V 122.7 H 306 Z"
           fill="#f2f2f2" />
        <path
           id="Path_90"
           data-name="Path 90"
           d="m 848,424.222 h -2.76 v -2.76 h -1.48 v 2.76 H 841 v 1.478 h 2.76 v 2.759 h 1.48 V 425.7 H 848 Z"
           fill="#f2f2f2" />
      </g>
      <g
         id="docusaurus_keytar"
         transform="translate(312.271,493.733)">
        <g
           id="Group_8"
           data-name="Group 8"
           transform="matrix(0.966,-0.259,0.259,0.966,109.327,91.085)">
          <g
             id="Group_2"
             data-name="Group 2"
             transform="translate(1.531,23.03)" />
          <g
             id="Group_3"
             data-name="Group 3"
             transform="translate(1.531,10.261)" />
          <g
             id="Group_4"
             data-name="Group 4"
             transform="rotate(180,45.525,4.773)" />
          <g
             id="Group_6"
             data-name="Group 6"
             transform="translate(1.531,16.584)">
            <g
               id="Group_5"
               data-name="Group 5"
               transform="translate(10.671)" />
          </g>
          <g
             id="Group_7"
             data-name="Group 7"
             transform="translate(1.531,29.627)" />
        </g>
      </g>
    </g>
  </g>
  <g
     inkscape:groupmode="layer"
     id="layer2"
     inkscape:label="tags chars"
     style="display:none">
    <text
       xml:space="preserve"
       style="font-style:normal;font-weight:normal;font-size:400px;line-height:1.25;font-family:sans-serif;fill:#ffccaa;fill-opacity:1;stroke:none"
       x="60.976963"
       y="448.70084"
       id="text10654"><tspan
         sodipodi:role="line"
         id="tspan10652"
         x="60.976963"
         y="448.70084"
         style="font-style:normal;font-variant:normal;font-weight:normal;font-stretch:normal;font-size:400px;font-family:Dyuthi;-inkscape-font-specification:Dyuthi;fill:#ffccaa">&lt; /&gt;</tspan></text>
  </g>
  <g
     inkscape:groupmode="layer"
     id="g855"
     inkscape:label="tags vector"
     style="display:inline">
    <g
       aria-label="&lt; /&gt;"
       id="text853"
       style="font-size:400px;line-height:1.25;fill:#ffccaa">
      <path
         d="m 254.72696,236.98209 q 13.28125,-6.25 22.07032,2.53906 8.78906,8.78906 8.78906,18.16406 0,15.03906 -13.86719,20.70313 l -119.33594,48.4375 119.33594,48.4375 q 13.86719,5.66406 13.86719,20.70312 0,9.96094 -6.44531,16.40625 -6.25,6.44531 -13.08594,6.44531 -6.83594,0 -11.32813,-2.14843 L 107.07071,353.19302 q -17.187497,-7.42187 -17.187497,-26.17187 0,-18.75 17.187497,-26.17188 z"
         style="font-family:Dyuthi;-inkscape-font-specification:Dyuthi"
         id="path937" />
      <path
         d="m 456.48478,200.06802 q 4.29687,-12.89062 17.57812,-12.89062 h 0.39063 q 9.17968,0 14.84375,7.22656 5.27343,7.8125 2.53906,16.79688 L 413.1254,453.19302 q -3.90625,12.89063 -17.57812,12.89063 h -0.58594 q -9.17969,0 -14.64844,-7.22656 -5.27344,-7.03125 -2.53906,-16.40625 z"
         style="font-family:Dyuthi;-inkscape-font-specification:Dyuthi"
         id="path939" />
      <path
         d="m 521.71915,257.68521 q 0.39063,-9.17969 6.83594,-15.625 6.44531,-6.44531 13.28125,-6.83594 6.83594,-0.39062 10.9375,1.75782 l 147.65625,63.86718 q 17.1875,7.42188 16.99219,26.17188 0,18.75 -16.99219,26.17187 l -147.65625,63.47657 q -4.29688,2.14843 -10.9375,2.14843 -6.83594,0 -13.28125,-6.83593 -6.44531,-6.83594 -6.83594,-16.01563 0,-15.03906 14.0625,-20.70312 l 118.94531,-48.4375 -118.94531,-48.4375 q -14.0625,-5.66407 -14.0625,-20.70313 z"
         style="font-family:Dyuthi;-inkscape-font-specification:Dyuthi"
         id="path941" />
    </g>
  </g>
  <metadata
     id="metadata8220">
    <rdf:RDF>
      <cc:Work
         rdf:about="">
        <dc:title>Easy to Use</dc:title>
      </cc:Work>
    </rdf:RDF>
  </metadata>
</svg>
