<?xml version="1.0" encoding="UTF-8" standalone="no"?>
<!-- Created with Inkscape (http://www.inkscape.org/) -->

<svg
   version="1.1"
   id="svg2"
   width="2666.6667"
   height="1466.6667"
   viewBox="0 0 2666.6667 1466.6667"
   sodipodi:docname="clouds.svg"
   inkscape:version="1.1.2 (0a00cf5339, 2022-02-04)"
   xmlns:inkscape="http://www.inkscape.org/namespaces/inkscape"
   xmlns:sodipodi="http://sodipodi.sourceforge.net/DTD/sodipodi-0.dtd"
   xmlns="http://www.w3.org/2000/svg"
   xmlns:svg="http://www.w3.org/2000/svg">
  <defs
     id="defs6" />
  <sodipodi:namedview
     id="namedview4"
     pagecolor="#ffffff"
     bordercolor="#666666"
     borderopacity="1.0"
     inkscape:pageshadow="2"
     inkscape:pageopacity="0.0"
     inkscape:pagecheckerboard="0"
     showgrid="false"
     inkscape:zoom="0.25087499"
     inkscape:cx="1608.3708"
     inkscape:cy="1179.8705"
     inkscape:window-width="1844"
     inkscape:window-height="1043"
     inkscape:window-x="0"
     inkscape:window-y="0"
     inkscape:window-maximized="1"
     inkscape:current-layer="g8" />
  <g
     inkscape:groupmode="layer"
     id="layer1"
     inkscape:label="Back"
     style="display:inline">
    <rect
       style="fill:#d3edf9;fill-opacity:1"
       id="rect3414"
       width="2666.6667"
       height="1466.6667"
       x="0"
       y="0" />
  </g>
  <g
     inkscape:groupmode="layer"
     inkscape:label="Image"
     id="g8"
     style="display:inline">
    <g
       id="g483">
      <path
         style="fill:#fafcfc;stroke-width:1.33333"
         d="m 2061.6291,1163.6893 c -1.6707,-0.805 -2.8312,-2.0827 -2.5791,-2.8393 0.9711,-2.9133 11.3696,-7.4203 20.6688,-8.9584 7.6483,-1.2651 11.3316,-2.7374 17.2894,-6.9108 8.9652,-6.2802 14.5877,-8.4347 25.1637,-9.6427 4.3055,-0.4917 12.2681,-2.6988 17.6949,-4.9046 9.0004,-3.6584 10.932,-3.9648 22,-3.4897 11.4639,0.4922 12.6632,0.8344 21.7398,6.2025 7.1566,4.2326 12.7669,6.3373 22,8.2533 24.1654,5.0148 27.7268,6.3763 27.7268,10.6004 0,1.4151 -1.2022,3.2162 -2.6715,4.0026 -3.0417,1.6279 -17.4813,2.0181 -23.0293,0.6223 -2.0355,-0.5121 -8.3355,-0.1845 -14,0.728 -10.1403,1.6335 -10.433,1.5999 -18.9659,-2.1768 -7.7908,-3.4483 -10.0141,-3.8197 -22,-3.6752 -11.6349,0.1403 -15.1075,0.7767 -27.262,4.9966 -11.7708,4.0867 -15.6955,4.8381 -25.3333,4.8503 -6.2726,0.01 -14.35,0.9079 -17.9499,2 -7.5753,2.298 -16.1357,2.4407 -20.4924,0.3415 z m -1747.69068,-6.2897 c -17.58504,-8.458 -23.70831,-10.4619 -41.27175,-13.5063 -26.75647,-4.6379 -50.20583,-2.7524 -75.62876,6.081 l -13.00411,4.5184 -11.0169,-4.1489 c -9.24511,-3.4818 -12.83956,-4.1409 -22.35023,-4.0987 -6.23333,0.028 -14.51723,0.9547 -18.40866,2.0602 l -7.07532,2.0098 -6.25801,-6.671 c -3.44191,-3.669 -7.07612,-7.5151 -8.07602,-8.5469 -0.99991,-1.0318 -7.65502,-5.7372 -14.789137,-10.4563 -13.772071,-9.11 -26.952961,-15.3227 -39.640434,-18.6839 -9.430808,-2.4985 -42.736369,-7.2903 -50.6712216,-7.2903 H 0 V 991.85737 c 0,-95.22068 0.22084334,-106.72458 2.0354543,-106.02824 1.1194997,0.42958 6.9694998,1.14749 13.0000007,1.59534 47.352407,3.51658 89.715485,22.75502 105.748665,48.02387 1.35578,2.13676 4.69196,6.95251 7.41373,10.70165 6.50607,8.96187 19.29558,33.59591 23.11219,44.5167 l 3.02886,8.66667 11.55381,0.2112 c 12.90061,0.23582 19.86372,2.41194 27.28116,8.52604 5.14885,4.2441 8.04905,4.7959 12.54909,2.3876 8.24411,-4.4122 25.13731,-3.6103 34.01992,1.6147 5.47344,3.2196 7.10382,3.2308 13.31024,0.092 18.2765,-9.244 51.14535,-8.8945 78.50086,0.8345 23.73397,8.4411 38.01985,20.8894 48.5345,42.2918 3.61422,7.3567 7.4744,16.9758 8.5782,21.3758 2.34368,9.3424 4.6324,11.5808 10.49763,10.2671 2.29298,-0.5136 13.76903,-0.9338 25.50236,-0.9338 h 21.33334 l 12.98742,5.2275 c 16.27528,6.5508 28.16379,15.7816 38.89964,30.2033 4.57118,6.1405 9.08675,10.8384 10.68234,11.1136 22.00784,3.7953 27.8866,5.4169 39.1345,10.7951 13.60388,6.5047 21.62943,11.9937 21.62943,14.7934 0,3.8582 -7.48257,3.9849 -34,0.5759 -9.08093,-1.1674 -19.98459,-1.1683 -44.82384,0 -29.15653,1.3672 -33.76223,1.2988 -41.22277,-0.6125 -7.88483,-2.02 -52.46499,-5.4247 -54.50678,-4.1628 -0.51567,0.3187 -10.55699,1.218 -22.31407,1.9985 -15.71592,1.0432 -24.31925,2.2998 -32.48948,4.7453 -6.11214,1.8294 -11.45726,3.2908 -11.87804,3.2474 -0.42076,-0.043 -6.79274,-2.9781 -14.15994,-6.5216 z M 509.68551,902.52133 c -9.31514,-4.56339 -18.4713,-5.40636 -36.42122,-3.35315 -9.27416,1.06084 -10.64944,0.88629 -17.42068,-2.21093 -19.26232,-8.81079 -34.9227,-8.54468 -64.56701,1.09712 -18.31069,5.95556 -25.86022,6.86732 -34.82074,4.20532 -6.05622,-1.79919 -8.76295,-1.82363 -22.66667,-0.20472 -13.75405,1.60149 -16.04084,1.58753 -17.74157,-0.10827 -2.80879,-2.80061 -0.0983,-4.96039 10.61905,-8.46137 9.25084,-3.02194 10.39189,-3.67332 25.40885,-14.50498 9.7757,-7.05116 22.92666,-12.31366 30.77175,-12.31366 2.77971,0 6.32844,-2.06036 12.35631,-7.17396 10.77235,-9.13847 20.81481,-13.12807 34.87781,-13.85599 12.93544,-0.66956 21.82586,1.62923 33.04255,8.5438 7.31725,4.51075 8.25913,4.74953 15.50157,3.93015 9.67771,-1.09491 28.75448,2.85348 37.4679,7.75485 3.35137,1.88519 8.94237,6.43665 12.42444,10.11437 l 6.33104,6.68678 h 9.19494 c 11.04423,0 33.57419,4.16236 44.62284,8.24397 9.09364,3.35939 16.57148,7.44755 16.86667,9.22107 0.75843,4.55676 0.93237,4.53432 -35.53333,4.58417 -19.8,0.0271 -39.6,0.46083 -44,0.96391 -7.22123,0.82565 -8.8094,0.51817 -16.3145,-3.15848 z m 1550.42049,-4.9515 c -3.975,-1.247 -7.4642,-2.97812 -7.7538,-3.84693 -0.7862,-2.35804 8.8934,-6.76912 18.1114,-8.25364 4.4654,-0.71913 10.7764,-2.86489 14.0244,-4.76835 3.4744,-2.03612 8.8434,-3.75129 13.042,-4.1664 11.7704,-1.16366 12.4483,-1.51192 17.6527,-9.06848 7.3411,-10.65878 16.4779,-16.41716 30.5791,-19.27202 6.3764,-1.29095 13.2178,-3.57627 15.2881,-5.10691 6.9485,-5.13725 17.0707,-9.53795 25.0341,-10.88385 22.139,-3.74168 34.9692,-2.97176 56.3824,3.38334 16.6022,4.92727 16.9064,4.95982 19.6999,2.10708 4.3992,-4.49248 10.3685,-8.04252 16.1336,-9.59489 5.5508,-1.49467 5.6436,-1.62052 8.9744,-12.16416 5.278,-16.7079 13.0669,-29.0649 25.0444,-39.73219 12.7652,-11.36895 25.1609,-17.99871 42.0297,-22.47931 11.6662,-3.09869 16.0318,-3.50684 42.985,-4.01869 25.6768,-0.48761 32.3057,-0.18323 46,2.11227 26.942,4.5161 43.6596,9.2915 70.6666,20.18602 5.8667,2.36659 14.0642,5.56543 18.2164,7.10855 l 7.5499,2.80565 6.5328,-6.11069 c 7.9148,-7.40337 9.5569,-8.31356 24.0763,-13.34439 9.8616,-3.41697 12.62,-3.8451 20.19,-3.13354 4.8224,0.45328 11.3037,1.73405 14.403,2.84614 3.0994,1.11211 6.306,1.60735 7.126,1.10055 0.82,-0.5068 3.2751,-4.89784 5.4556,-9.75787 2.1806,-4.86002 5.5038,-10.8543 7.385,-13.32061 4.271,-5.59972 17.7269,-14.40564 24.9497,-16.32785 6.2229,-1.6561 10.1231,-4.64628 10.0983,-7.74196 -0.032,-4.04132 4.5082,-21.46002 5.5941,-21.46002 0.5993,0 1.0896,37.06648 1.0896,82.36998 v 82.36996 l -8.3333,3.50887 c -4.5834,1.92986 -12.059,4.7158 -16.6126,6.19097 -7.7762,2.51921 -8.829,2.56183 -17.3333,0.70165 -14.9472,-3.26945 -40.6051,-3.86854 -54.7051,-1.2773 -6.6684,1.22546 -13.9794,3.15362 -16.2469,4.28481 -4.0192,2.00503 -4.4657,1.89003 -17.7791,-4.57889 -14.5026,-7.04676 -33.9646,-13.28144 -53.6564,-17.18888 -15.271,-3.03024 -77.7218,-3.46384 -90.6666,-0.62952 -13.85,3.03254 -31.6448,9.4209 -41.5634,14.92134 -8.6933,4.82096 -11.7521,7.65262 -22.2017,20.55336 l -3.1533,3.89303 -6.5408,-2.25365 c -11.7666,-4.05422 -35.5928,-9.90747 -49.8742,-12.25228 -19.2894,-3.16711 -59.35,-2.11899 -76,1.98842 -18.2361,4.4987 -23.9185,6.65376 -37.5329,14.23422 -7.0764,3.94016 -14.4189,7.16392 -16.3167,7.16392 -1.8977,0 -9.2236,-1.5 -16.2797,-3.33334 -17.4569,-4.5357 -27.1181,-4.3802 -41.4169,0.66667 -13.0727,4.61407 -11.1231,4.46365 -20.3478,1.56981 z M 138.28323,705.39363 c -5.7109,-1.2616 -11.00812,-2.91851 -11.7716,-3.68199 -1.7654,-1.7654 13.01077,-6.34686 26.29017,-8.15145 5.20766,-0.70769 11.21278,-2.18872 13.34471,-3.29119 2.13193,-1.10246 9.2354,-3.0688 15.78548,-4.36962 9.90567,-1.96726 12.75689,-3.13096 16.94769,-6.9171 4.77672,-4.31546 14.46734,-8.3156 20.14519,-8.3156 1.43057,0 5.98521,-3.46798 10.12143,-7.70665 6.66813,-6.8333 8.84138,-8.1396 19.1772,-11.52706 14.66358,-4.80585 25.2902,-4.29686 37.68478,1.80496 7.0995,3.49508 9.24112,3.91355 18.86267,3.68574 l 10.85385,-0.25699 9.6893,6.66667 c 8.39809,5.77827 10.29428,7.86629 14.22929,15.66883 4.96989,9.85457 6.32568,10.93416 17.33181,13.80089 7.87475,2.05111 25.66743,11.06573 25.68255,13.012 0.005,0.64107 -2.19995,0.64415 -4.99108,0.007 -2.75,-0.62776 -11.9,-0.94692 -20.33333,-0.70924 -15.20011,0.42838 -15.40284,0.39389 -23.33334,-3.9702 -7.54988,-4.15464 -8.76074,-4.40442 -21.52093,-4.43914 -10.36969,-0.0283 -14.09871,-0.52936 -16,-2.15025 -14.50359,-12.36453 -32.50541,-13.20884 -54.83507,-2.57181 -6.06246,2.88794 -13.21974,6.92356 -15.90506,8.96802 l -4.8824,3.71724 -28.20906,-0.35689 c -22.80937,-0.28857 -29.13608,0.0304 -33.0521,1.66667 -5.82698,2.43466 -7.91096,2.37768 -21.31215,-0.58283 z M 2521.3334,502.14029 c -2.5667,-0.98581 -7.0372,-2.82911 -9.9347,-4.0962 -6.6168,-2.89369 -24.2992,-3.33905 -33.082,-0.83324 -6.2345,1.77879 -6.5495,1.71968 -17.3333,-3.25292 -18.7378,-8.64029 -35.3728,-7.9564 -68.3167,2.80861 -15.4521,5.04926 -21.5337,5.39894 -36.6649,2.10814 -4.3583,-0.94787 -9.2796,-0.77363 -18,0.63726 -12.4258,2.0104 -18.0018,1.63356 -18.0018,-1.21661 0,-2.34093 4.3934,-4.80115 15.0407,-8.42252 5.4045,-1.8382 11.3035,-5.0136 14.2368,-7.66367 8.9869,-8.11924 21.2675,-14.38628 32.7843,-16.73066 9.7693,-1.98868 11.529,-2.8632 19.6866,-9.78379 6.6831,-5.66969 11.19,-8.2892 17.7454,-10.31396 16.7545,-5.17491 35.6954,-2.82076 49.143,6.10793 7.131,4.73464 7.553,4.83743 16.3416,3.97956 17.1256,-1.67162 37.4255,5.70642 48.7794,17.72899 l 6.4245,6.8028 h 9.9937 c 10.673,0 37.7926,5.07064 46.3083,8.65841 8.1947,3.45254 15.5157,8.82592 15.5157,11.38799 0,2.19913 -2.2777,2.34501 -33.6666,2.15616 -18.5167,-0.11147 -37.8667,0.23229 -43,0.76379 -6.6531,0.68882 -10.6735,0.45161 -14,-0.82607 z M 54.000001,417.70186 c -3.604564,-0.88601 -6.133199,-3.0743 -5.233884,-4.52942 1.621502,-2.62366 12.409233,-6.67148 21.065464,-7.90431 6.804272,-0.96907 10.410305,-2.29159 14,-5.13452 8.133004,-6.44111 15.027534,-9.31792 26.168419,-10.91908 5.86667,-0.84316 14.66724,-3.26135 19.55682,-5.37376 7.33766,-3.17005 10.75084,-3.84076 19.54512,-3.84076 10.29254,0 11.14144,0.24943 24.95766,7.33333 7.8665,4.03334 16.04291,7.33334 18.16982,7.33334 6.71721,0 26.76737,5.66345 29.41165,8.30773 3.34176,3.34176 1.53828,5.49552 -6.48207,7.74108 -4.93649,1.38213 -7.7444,1.39236 -14.48386,0.0528 -6.68987,-1.32972 -10.35424,-1.32669 -18.34034,0.0152 -9.25138,1.55451 -10.4068,1.47881 -15.82412,-1.03676 -16.39136,-7.61143 -28.45512,-7.60184 -50.51068,0.0401 -12.3833,4.29068 -15.38574,4.82996 -25.999999,4.66994 -8.273,-0.12467 -13.812037,0.50094 -17.834303,2.01446 -5.634299,2.12014 -12.621204,2.59343 -18.165697,1.23058 z m 507.333339,-8.93592 c -1.83333,-0.98669 -8.71209,-3.13376 -15.28615,-4.77126 -9.56658,-2.38292 -13.90702,-2.8002 -21.74165,-2.09026 -10.69308,0.96899 -12.45139,0.31872 -25.32851,-9.36709 -7.65842,-5.76047 -28.38337,-13.46611 -38.31036,-14.244 -10.56941,-0.82823 -30.33804,0.99779 -38.66666,3.57161 -3.66667,1.13314 -11.36946,4.8645 -17.11731,8.29192 l -10.45064,6.23168 -12.8827,-0.77578 c -14.61181,-0.87992 -27.80374,0.97446 -43.03709,6.04973 -9.38856,3.12796 -10.55249,3.21771 -25.07368,1.93313 -10.33251,-0.91404 -19.97703,-0.90684 -30,0.0224 -15.49884,1.4369 -19.94415,0.65854 -19.17087,-3.3568 0.54894,-2.85037 9.89904,-8.01413 18.8045,-10.3851 4.03446,-1.07414 13.57141,-1.85106 22.83534,-1.86027 l 15.90756,-0.0158 9.80687,-6.77948 c 11.86624,-8.20312 22.35192,-12.5866 33.04468,-13.81412 13.85391,-1.59042 17.55383,-3.0364 20.66971,-8.078 3.8632,-6.25078 15.52189,-16.01175 23.16072,-19.39075 9.62487,-4.25755 20.75493,-5.59181 32.84111,-3.93699 17.86292,2.44578 31.43046,9.21138 44.69901,22.28962 l 6.70387,6.60773 14.10726,0.79888 c 18.25155,1.03358 28.80344,3.82863 41.15166,10.90051 5.97582,3.42239 13.8554,6.59928 19.58061,7.89453 17.23667,3.89958 28.30705,8.76114 34.97748,15.36036 l 6.10857,6.04339 -12,0.97091 c -6.6,0.53398 -14.09604,1.60746 -16.65786,2.38549 -6.29632,1.91219 -14.62187,1.69547 -18.67547,-0.48615 z M 1830.8526,293.3351 c -2.4644,-0.58224 -5.4644,-2.06621 -6.6667,-3.29771 -2.0331,-2.08256 -1.7255,-2.65932 4.4007,-8.25062 16.1005,-14.69524 39.3624,-21.78676 71.4656,-21.78676 h 18.4608 l 6.2897,-7.28534 c 13.7015,-15.87025 37.938,-26.048 62.0291,-26.048 7.768,0 8.1424,-0.16662 13.4296,-5.97625 6.6565,-7.31422 16.7282,-13.16256 26.1376,-15.17743 9.0525,-1.93843 25.8626,-1.93544 37.6226,0.007 l 9.2019,1.51966 4.7396,-4.1614 c 2.6068,-2.28877 6.4081,-5.02421 8.4473,-6.07877 6.2204,-3.21664 19.5322,-6.13249 27.997,-6.13249 7.3213,0 8.3238,-0.35847 11.4741,-4.10231 1.8985,-2.25625 3.4519,-4.64501 3.4519,-5.30833 0,-2.01074 17.2125,-19.59696 26.1101,-26.67698 17.7637,-14.13502 47.1176,-27.23225 70.3693,-31.39765 17.948,-3.21526 48.7047,-2.92058 64.1872,0.61497 6.6,1.50716 14.5183,3.63173 17.5962,4.72127 9.0264,3.19523 25.8728,11.60163 33.0705,16.50219 14.6249,9.95746 35.9759,35.56904 46.9452,56.3135 2.9236,5.52874 5.2744,8.04787 9.5532,10.23694 3.1215,1.59698 7.1152,3.84698 8.8749,5 4.5563,2.9854 8.7566,2.60208 14.0174,-1.27923 9.9617,-7.34952 29.4812,-10.10843 47.9426,-6.77629 12.4066,2.23928 26.5883,8.6488 36.8836,16.66976 6.0224,4.69205 6.3458,4.77552 18.9551,4.89339 10.0859,0.0943 14.2101,0.73652 19.2936,3.00453 10.178,4.54095 19.0049,11.75753 23.6127,19.30491 2.3324,3.82029 4.405,7.13221 4.6061,7.35981 0.2009,0.22761 4.2096,0.95821 8.9079,1.62359 10.9832,1.5554 16.0824,3.74654 25.9082,11.13284 5.5972,4.20744 10.6151,6.66472 16.7638,8.2092 8.9386,2.24534 17.069,6.2742 17.069,8.4583 0,2.52906 -3.986,2.52639 -13.4956,-0.009 -5.4106,-1.44259 -13.1137,-3.49421 -17.1178,-4.55916 -4.0042,-1.06493 -12.3376,-1.93625 -18.519,-1.93625 -8.5702,0 -14.2812,-0.91868 -24.0532,-3.86926 -7.0478,-2.12809 -16.1144,-4.66386 -20.1477,-5.63506 -8.7203,-2.09976 -35.1911,-2.045 -44.4839,0.092 -6.3514,1.46061 -6.76,1.35552 -20,-5.1453 -24.5852,-12.07121 -40.8101,-15.93308 -71.6429,-17.05253 -21.0069,-0.76269 -26.192,-0.19431 -42.1081,4.61591 l -6.9015,2.0858 -9.2296,-5.57655 c -11.2332,-6.78723 -32.7712,-15.77292 -43.634,-18.20424 -4.4,-0.98481 -12.2,-2.7222 -17.3333,-3.86087 -12.1478,-2.69457 -43.1591,-2.75906 -60.3422,-0.12546 -19.0422,2.91854 -51.2796,11.47418 -61.6578,16.36369 -7.2003,3.39225 -21.7031,11.47855 -26.5266,14.79027 -2.6536,1.82192 -8.3516,2.7541 -24.1401,3.94929 -20.8249,1.57644 -34.2855,4.33831 -45.3333,9.3016 -5.7516,2.58391 -6.4418,2.61057 -16.6667,0.64404 -12.5716,-2.41785 -31.7061,-0.90205 -40.2432,3.18799 -4.1987,2.01158 -7.7755,2.37273 -20.4235,2.06216 -17.6437,-0.43326 -37.7149,2.07216 -55.9296,6.98149 -14.4834,3.90367 -19.2201,4.12839 -29.4037,1.39501 -10.4096,-2.79404 -27.2319,-2.54773 -37.5263,0.54946 -17.8316,5.36493 -31.4142,6.68792 -42.2878,4.11897 z"
         id="path489"
         sodipodi:nodetypes="sssssssssssssssscsscsscscscssssscsssssscsssscssssscsscssscsssscccsssssssssssssssscssssssssssssssssssssssssscssssssssssscsssssssssscssssssssssssssssssscssssssssssscsssssssssssssssssssscsssssssssssssssssssssssssssssssscssssssscsssssscsssscsssssscscssssscssssssssssssssssssssssssssssssssscssssssssssssssss" />
      <path
         style="fill:#d3edf9;stroke-width:1.33333"
         d="M 11.666667,1213.6739 0,1213.2295 v -57.2814 -57.2814 h 5.7478674 c 7.9348526,0 41.2404136,4.7918 50.6712216,7.2903 19.432057,5.1481 46.628331,20.8726 59.115281,34.1796 3.5561,3.7897 7.17987,7.6306 8.05283,8.5355 1.25749,1.3034 3.05784,1.2274 8.66667,-0.3658 3.89371,-1.106 12.17947,-2.0336 18.4128,-2.0612 9.51067,-0.042 13.10512,0.6169 22.35023,4.0987 l 11.0169,4.1489 13.00411,-4.5184 c 25.42293,-8.8334 48.87229,-10.7189 75.62876,-6.081 17.52252,3.0373 23.5196,4.9965 41.76056,13.6426 l 13.86983,6.5741 11.51814,-3.3878 c 8.45415,-2.4867 17.17276,-3.764 32.77503,-4.8018 11.69129,-0.7776 21.67773,-1.674 22.19208,-1.9918 2.04001,-1.2608 46.62476,2.1455 54.50442,4.1642 7.46054,1.9113 12.06624,1.9797 41.22277,0.6125 24.83925,-1.1648 35.74291,-1.1639 44.82384,0 26.51743,3.409 34,3.2823 34,-0.5759 0,-2.7997 -8.02555,-8.2887 -21.62943,-14.7934 -11.2479,-5.3782 -17.12666,-6.9998 -39.1345,-10.7951 -1.59559,-0.2752 -6.11116,-4.9731 -10.68234,-11.1136 -10.73585,-14.4217 -22.62436,-23.6525 -38.89964,-30.2033 L 446.00001,1086 h -21.33334 c -11.73333,0 -23.20938,0.4202 -25.50236,0.9338 -5.86523,1.3138 -8.15395,-0.9247 -10.49763,-10.2671 -1.1038,-4.4 -4.96398,-14.0191 -8.5782,-21.3757 -10.51465,-21.4024 -24.80053,-33.8508 -48.5345,-42.2918 -27.35551,-9.7291 -60.22436,-10.0785 -78.50086,-0.8346 -6.20642,3.1391 -7.8368,3.1279 -13.31024,-0.092 -8.88261,-5.225 -25.77581,-6.0268 -34.01992,-1.6147 -4.50004,2.4084 -7.40024,1.8566 -12.54909,-2.3876 -7.41744,-6.114 -14.38055,-8.29018 -27.28116,-8.526 l -11.55381,-0.21124 -3.02886,-8.66667 c -3.81661,-10.92079 -16.60612,-35.55483 -23.11219,-44.5167 -2.72177,-3.74914 -6.05795,-8.56489 -7.41373,-10.70165 -16.06863,-25.32473 -58.366295,-44.49795 -105.98875,-48.04389 -18.0440782,-1.34355 -18.1568111,-3.69312 -0.128703,-2.6824 40.977846,2.29736 81.974986,18.2284 100.644833,39.10948 13.61245,15.2247 31.75293,45.64581 38.57616,64.69121 l 2.91765,8.14395 11.93068,0.0928 c 12.77579,0.0995 18.46273,2.03931 26.97431,9.20131 l 4.06636,3.4216 7.11168,-2.829 c 9.04321,-3.5975 22.20473,-2.7464 32.8426,2.1238 l 7.14413,3.2707 5.18716,-2.6463 c 18.03431,-9.2004 55.17892,-8.8109 80.89289,0.8484 24.44964,9.1843 38.36812,21.2161 49.38454,42.6903 3.71308,7.2378 7.66389,16.6679 8.77958,20.9558 1.11571,4.2879 2.41019,8.1778 2.87664,8.6442 0.46646,0.4665 11.75821,0.6712 25.09278,0.4549 26.50721,-0.4299 31.09557,0.4549 50.86651,9.808 7.70016,3.6428 26.32106,20.8103 35.67344,32.8892 3.19726,4.1293 4.54444,4.7845 11.33333,5.5119 18.25709,1.9559 39.97936,10.8532 51.71201,21.1806 4.8851,4.3001 5.99272,6.1103 5.99272,9.7942 0,9.2422 -8.3454,10.8179 -66.66666,12.5874 -23.1,0.7009 -51.9,2.2117 -64,3.3574 -12.1,1.1458 -33.1,2.6546 -46.66667,3.3531 -13.56667,0.6985 -32.16667,2.4891 -41.33334,3.9791 -9.16666,1.4899 -22.36666,3.6172 -29.33333,4.7271 -6.96667,1.11 -15.96667,2.8516 -20,3.8703 -25.31985,6.3946 -54.19753,8.7487 -105.33333,8.5866 -40.29156,-0.1277 -51.73783,0.5913 -88.00001,5.5278 -44.85553,6.1062 -62.700751,7.0902 -101.666663,5.606 z M 2076,1173.1772 c -9.9122,-1.1122 -18.0213,-3.4597 -19.941,-5.7728 -0.8718,-1.0504 -1.3916,-3.5961 -1.1554,-5.6571 0.5778,-5.038 10.982,-10.6167 24.0524,-12.8967 7.4168,-1.2937 11.3216,-2.8531 16.5304,-6.6011 8.2442,-5.9322 15.0646,-8.4689 26.1388,-9.7218 4.593,-0.5197 11.836,-2.5931 16.0956,-4.6076 9.3459,-4.4199 22.8002,-6.0646 32.2792,-3.946 3.6667,0.8195 10.6815,3.8665 15.5886,6.7711 6.4714,3.8306 11.9644,5.8509 20,7.3557 17.4601,3.2698 25.3258,5.9417 29.3561,9.972 4.5063,4.5063 4.6555,6.6122 0.722,10.1944 -4.5337,4.1288 -29.7769,11.0218 -40.6104,11.0892 -2.0476,0.013 -7.9229,1.0142 -13.0563,2.2255 -7.6464,1.8043 -17.4066,2.2219 -54,2.3102 -24.5666,0.059 -47.9666,-0.2624 -52,-0.715 z m 6.1215,-9.8294 c 3.5999,-1.0921 11.6773,-1.9921 17.9499,-2 9.6378,-0.012 13.5625,-0.7636 25.3333,-4.8503 12.1545,-4.2199 15.6271,-4.8563 27.262,-4.9966 11.9859,-0.1445 14.2092,0.2269 22,3.6752 8.5329,3.7767 8.8256,3.8103 18.9659,2.1768 5.6645,-0.9125 11.9645,-1.2401 14,-0.728 5.548,1.3958 19.9876,1.0056 23.0293,-0.6223 1.4693,-0.7864 2.6715,-2.5875 2.6715,-4.0026 0,-4.2241 -3.5614,-5.5856 -27.7268,-10.6004 -9.2331,-1.916 -14.8434,-4.0207 -22,-8.2533 -9.0766,-5.3681 -10.2759,-5.7103 -21.7398,-6.2025 -11.068,-0.4751 -12.9996,-0.1687 -22,3.4897 -5.4268,2.2058 -13.3894,4.4129 -17.6949,4.9046 -10.576,1.208 -16.1985,3.3625 -25.1637,9.6427 -5.9578,4.1734 -9.6411,5.6457 -17.2894,6.9108 -9.2992,1.5381 -19.6977,6.0451 -20.6688,8.9584 -1.3848,4.1546 12.6142,5.6701 23.0715,2.4978 z m 391.2119,-234.04686 c -12.1,-0.58455 -30.6635,-2.31637 -41.2522,-3.84852 -22.3245,-3.23029 -33.5433,-3.40369 -80.361,-1.24211 -27.6676,1.27743 -37.4408,1.24551 -50.6667,-0.1655 -28.9639,-3.09002 -47.6147,-3.62754 -69.0535,-1.99015 -11.3666,0.86812 -24.2666,1.39631 -28.6666,1.17372 -4.4,-0.22257 -14.9,-0.73824 -23.3334,-1.14593 -8.4333,-0.40768 -24.0333,-2.26755 -34.6666,-4.13304 -36.7684,-6.45056 -52.7174,-8.5549 -65.0702,-8.58542 -20.9201,-0.0517 -36.3452,-5.05525 -36.2208,-11.74925 0.1107,-5.95392 9.5434,-11.69283 23.6572,-14.39327 5.443,-1.0414 11.5743,-3.08829 13.6251,-4.54865 3.4868,-2.4828 9.7545,-4.228 21.6783,-6.03611 4.1292,-0.62614 5.9321,-2.01634 10.3226,-7.95958 2.9259,-3.96052 7.885,-8.96586 11.0202,-11.12296 5.9838,-4.117 21.5401,-9.55415 27.3354,-9.55415 1.8703,0 5.4104,-1.53309 7.8671,-3.40688 20.3443,-15.51736 56.6505,-17.91927 90.5836,-5.99273 l 7.5903,2.66778 4.6276,-4.06306 c 4.2609,-3.74108 7.2209,-5.35258 16.3266,-8.88827 2.4976,-0.9698 3.7792,-2.94439 5.0679,-7.80747 0.9487,-3.58016 4.1897,-11.60937 7.2024,-17.84271 6.9377,-14.35429 21.9912,-29.76528 37.4025,-38.29097 20.6935,-11.44785 52.5712,-15.92101 95.6508,-13.42201 25.9816,1.50717 60.6739,9.14417 80.6667,17.75762 2.2,0.94782 9.7011,4.17552 16.6689,7.17267 6.968,2.99715 14.0799,5.44936 15.8042,5.44936 1.8297,0 5.8642,-2.45371 9.6893,-5.89284 6.9864,-6.28131 22.6788,-13.21008 33.3396,-14.72063 5.2627,-0.74568 18.7424,0.56331 28.0616,2.72499 3.3125,0.76837 3.7353,0.34171 6,-6.05416 4.9933,-14.10199 17.9789,-26.40676 34.0531,-32.26768 6.2588,-2.28211 7.899,-3.50229 8.4817,-6.30947 3.7799,-18.21433 5.4055,-22.81354 8.0633,-22.81354 1.0111,0 1.8383,0.6 1.8383,1.33333 0,0.73333 -0.4903,1.33333 -1.0896,1.33333 -1.0859,0 -5.6267,17.4187 -5.5941,21.46002 0.025,3.09568 -3.8754,6.08586 -10.0983,7.74196 -7.2228,1.92221 -20.6787,10.72813 -24.9497,16.32785 -1.8812,2.46631 -5.2044,8.46059 -7.385,13.32061 -2.1805,4.86003 -4.6356,9.25107 -5.4556,9.75787 -0.82,0.5068 -4.0266,0.012 -7.126,-1.10055 -3.0993,-1.11209 -9.5806,-2.39286 -14.403,-2.84614 -7.57,-0.71156 -10.3284,-0.28343 -20.19,3.13354 -14.5194,5.03083 -16.1615,5.94102 -24.0763,13.34439 l -6.5328,6.11069 -7.5499,-2.80565 c -4.1522,-1.54312 -12.3497,-4.74196 -18.2164,-7.10855 -27.007,-10.89452 -43.7246,-15.66992 -70.6666,-20.18602 -13.6943,-2.2955 -20.3232,-2.59988 -46,-2.11227 -26.9532,0.51185 -31.3188,0.92 -42.985,4.01869 -33.6948,8.9498 -57.1092,30.66674 -67.0741,62.2115 -3.3308,10.54364 -3.4236,10.66949 -8.9744,12.16416 -5.7651,1.55237 -11.7344,5.10241 -16.1336,9.59489 -2.7935,2.85274 -3.0977,2.82019 -19.6999,-2.10708 -32.1784,-9.55008 -62.0804,-6.79536 -81.4165,7.50051 -2.0703,1.53064 -8.9117,3.81596 -15.2881,5.10691 -14.1012,2.85486 -23.238,8.61324 -30.5791,19.27202 -5.2044,7.55656 -5.8823,7.90482 -17.6527,9.06848 -4.1986,0.41511 -9.5676,2.13028 -13.042,4.1664 -3.248,1.90346 -9.559,4.04922 -14.0244,4.76835 -9.2053,1.48248 -18.8978,5.89464 -18.1141,8.24577 0.2881,0.8645 4.0775,2.65438 8.4205,3.97751 l 7.8967,2.40568 11.6001,-4.04909 c 14.5894,-5.09248 24.1274,-5.25659 41.6039,-0.71578 7.0561,1.83334 14.382,3.33334 16.2797,3.33334 1.8978,0 9.2403,-3.22376 16.3167,-7.16392 13.6144,-7.58046 19.2968,-9.73552 37.5329,-14.23422 16.65,-4.10741 56.7106,-5.15553 76,-1.98842 14.2814,2.34481 38.1076,8.19806 49.8742,12.25228 l 6.5408,2.25365 3.1533,-3.89303 c 10.4496,-12.90074 13.5084,-15.7324 22.2017,-20.55336 9.9186,-5.50044 27.7134,-11.8888 41.5634,-14.92134 12.9448,-2.83432 75.3956,-2.40072 90.6666,0.62952 19.6918,3.90744 39.1538,10.14212 53.6564,17.18888 13.3134,6.46892 13.7599,6.58392 17.7791,4.57889 2.2675,-1.13119 9.5785,-3.05935 16.2469,-4.28481 14.066,-2.585 39.752,-1.99407 54.6043,1.25622 8.6112,1.88448 9.3409,1.83632 19.0908,-1.25984 5.5756,-1.77057 11.7465,-4.03749 13.7133,-5.03761 1.9667,-1.00012 4.9259,-2.23484 6.5759,-2.74383 l 3,-0.92544 v 32.11526 32.11525 l -3,-0.66715 c -17.8912,-3.97868 -43.9243,-6.66018 -64.3333,-6.62661 -22.2266,0.0365 -35.8879,1.92515 -62,8.57105 -4.219,1.07378 -20.232,3.07306 -36,4.49467 -3.3,0.29753 -15.9,0.0627 -28,-0.52184 z M 494.00001,919.59121 c -10.73655,-1.39654 -36.8523,-1.61634 -87.33334,-0.73504 -24.04413,0.41976 -28.45648,0.16202 -36.66667,-2.14178 -7.10709,-1.99426 -13.78581,-2.64729 -28,-2.73776 -10.26666,-0.0653 -20.9272,-0.60556 -23.69006,-1.20049 C 313.43804,911.72709 308,906.74642 308,903.33335 c 0,-4.33772 5.75848,-8.58741 16.34776,-12.06444 6.04207,-1.98394 12.99562,-5.18105 15.45234,-7.10469 16.74198,-13.10917 31.33316,-20.1642 41.70348,-20.1642 2.63356,0 5.70936,-1.64371 9.52621,-5.0908 13.40212,-12.1038 23.79276,-16.24253 40.77823,-16.24253 14.1424,0 23.82593,2.57904 33.00504,8.79033 6.35077,4.29741 7.31003,4.55183 14.13713,3.74944 8.77552,-1.03139 26.86408,2.25276 35.71648,6.48467 3.3,1.57757 9.73487,6.34244 14.29971,10.5886 l 8.29969,7.72029 h 9.3197 c 20.4942,0 50.91396,8.56351 59.63413,16.78769 5.09255,4.80288 5.55847,8.10607 1.81469,12.8655 -3.60444,4.5823 -11.0773,6.19982 -35.81228,7.75168 -11.48893,0.7208 -25.08897,1.86877 -30.2223,2.55104 -11.9329,1.586 -34.31,1.41597 -48,-0.36472 z m 76,-14.87531 c 36.4657,-0.0499 36.29176,-0.0275 35.53333,-4.58417 -0.29519,-1.77352 -7.77303,-5.86168 -16.86667,-9.22107 -11.04865,-4.08161 -33.57861,-8.24397 -44.62284,-8.24397 h -9.19494 l -6.33104,-6.68678 c -3.48207,-3.67772 -9.07307,-8.22918 -12.42444,-10.11437 -8.71342,-4.90137 -27.79019,-8.84976 -37.4679,-7.75485 -7.24244,0.81938 -8.18432,0.5806 -15.50157,-3.93015 -11.21669,-6.91457 -20.10711,-9.21336 -33.04255,-8.5438 -14.063,0.72792 -24.10546,4.71752 -34.87781,13.85599 -6.02787,5.1136 -9.5766,7.17396 -12.35631,7.17396 -7.84509,0 -20.99605,5.2625 -30.77175,12.31368 -15.01696,10.83165 -16.15801,11.48304 -25.40885,14.50497 -10.71732,3.50099 -13.42784,5.66076 -10.61905,8.46137 1.70073,1.69579 3.98752,1.70975 17.74157,0.10827 13.90372,-1.61891 16.61045,-1.59447 22.66667,0.20472 8.96052,2.662 16.51005,1.75024 34.82074,-4.20532 29.64431,-9.6418 45.30469,-9.90791 64.56701,-1.09712 6.77124,3.09723 8.14652,3.27177 17.42068,2.21093 17.94992,-2.05321 27.10608,-1.21024 36.42122,3.35315 7.5051,3.67665 9.09327,3.98413 16.3145,3.15848 4.4,-0.50308 24.2,-0.93684 44,-0.96391 z M 153.79982,719.40854 c -5.97676,-1.68739 -14.29871,-3.49678 -18.49322,-4.02084 -9.20443,-1.15002 -19.04443,-5.15304 -20.22418,-8.22743 -1.26627,-3.29984 6.10908,-9.28476 14.52917,-11.79005 3.88029,-1.15454 12.45508,-3.03616 19.05508,-4.18139 6.6,-1.14524 14.7,-3.17724 18,-4.51559 3.3,-1.33833 9,-2.86909 12.66667,-3.40168 8.86644,-1.28785 11.875,-2.51122 17.73712,-7.21244 5.26246,-4.22033 14.63024,-8.0591 19.66664,-8.0591 1.96597,0 5.85808,-2.79803 10.83236,-7.78738 6.87488,-6.89568 9.08449,-8.21085 19.2971,-11.4858 15.70402,-5.03592 27.44799,-4.56877 39.95692,1.58935 8.01459,3.94557 9.43434,4.22608 17.55251,3.468 7.78476,-0.72696 9.67525,-0.41254 15.93553,2.65033 10.65927,5.2151 17.17186,11.50935 22.02818,21.28968 4.50088,9.0645 5.34737,9.67499 16.99364,12.25618 6.84468,1.517 28.44708,13.89398 29.3799,16.83306 1.18695,3.73974 -2.57574,7.53356 -9.2583,9.33494 -3.00224,0.80929 -12.04951,1.2694 -20.1216,1.02332 -26.9072,-0.82028 -46.87026,-0.0969 -60.83388,2.20436 -15.57944,2.56757 -37.63422,2.86105 -54.46448,0.72474 -15.37819,-1.95198 -27.56762,-1.79029 -43.25214,0.57375 -18.87213,2.84447 -33.85349,2.44079 -46.98302,-1.26601 z m 5.79556,-13.43208 c 3.91602,-1.63622 10.24273,-1.95524 33.0521,-1.66667 l 28.20906,0.35689 4.8824,-3.71724 c 2.68532,-2.04446 9.8426,-6.08008 15.90506,-8.96802 22.32966,-10.63703 40.33148,-9.79272 54.83507,2.57181 1.90129,1.62089 5.63031,2.12203 16,2.15025 12.76019,0.0347 13.97105,0.2845 21.52093,4.43914 7.9305,4.36409 8.13323,4.39858 23.33334,3.9702 8.43333,-0.23768 17.58333,0.0815 20.33333,0.70924 2.79113,0.63716 4.99605,0.63408 4.99108,-0.007 -0.0151,-1.94627 -17.8078,-10.96089 -25.68255,-13.012 -11.00613,-2.86673 -12.36192,-3.94632 -17.33181,-13.80089 -3.93501,-7.80254 -5.8312,-9.89056 -14.22929,-15.66883 l -9.6893,-6.66667 -10.85385,0.25699 c -9.62155,0.22781 -11.76317,-0.19066 -18.86267,-3.68574 -12.39458,-6.10182 -23.0212,-6.61081 -37.68478,-1.80496 -10.33582,3.38746 -12.50907,4.69376 -19.1772,11.52706 -4.13622,4.23867 -8.69086,7.70665 -10.12143,7.70665 -5.67785,0 -15.36847,4.00014 -20.14519,8.3156 -4.1908,3.78614 -7.04202,4.94984 -16.94769,6.9171 -6.55008,1.30082 -13.65355,3.26716 -15.78548,4.36962 -2.13193,1.10247 -8.13705,2.5835 -13.34471,3.29119 -13.2794,1.80459 -28.05557,6.38605 -26.29017,8.15145 1.41031,1.41031 19.64005,5.84667 25.19787,6.13211 1.67354,0.086 5.2222,-0.75433 7.88588,-1.86729 z M 2499.3334,516.95021 c -10.9616,-1.39941 -38.8772,-1.6463 -88,-0.77829 -25.2199,0.44564 -28.7943,0.23073 -36,-2.16439 -6.5016,-2.16107 -10.997,-2.60185 -24,-2.35329 -20.7238,0.39616 -31.8136,-1.4825 -35.3592,-5.98988 -5.7124,-7.26224 -1.7811,-11.80016 15.372,-17.74362 7.5528,-2.61696 13.6522,-5.71702 16.7437,-8.5099 10.3969,-9.39302 29.3628,-18.0775 39.4791,-18.0775 1.69,0 6.0645,-2.71404 9.9806,-6.19209 3.8346,-3.40565 10.9047,-8.05271 15.7112,-10.32679 7.2856,-3.447 10.7127,-4.21453 20.6044,-4.61465 15.7815,-0.63836 25.9582,1.66147 35.476,8.01725 7.2782,4.86011 8.0379,5.07226 15.4895,4.32514 16.796,-1.684 37.4692,5.55334 49.9975,17.50329 l 7.6405,7.28785 9.7657,0.014 c 13.456,0.0193 38.7559,5.39824 49.493,10.52252 13.6474,6.51335 17.4134,13.11051 11.0926,19.43143 -4.519,4.51895 -10.9936,5.88033 -35.0096,7.36127 -11.629,0.71711 -25.3437,1.89176 -30.477,2.61035 -11.6112,1.62538 -33.9152,1.47544 -48,-0.3227 z m 79,-14.74764 c 31.3889,0.18885 33.6666,0.0429 33.6666,-2.15616 0,-2.56207 -7.321,-7.93545 -15.5157,-11.38799 -8.5157,-3.58777 -35.6353,-8.65841 -46.3083,-8.65841 h -9.9937 l -6.4245,-6.8028 c -11.3539,-12.02257 -31.6538,-19.40061 -48.7794,-17.72899 -8.7886,0.85787 -9.2106,0.75508 -16.3416,-3.97956 -13.4476,-8.92869 -32.3885,-11.28284 -49.143,-6.10793 -6.5554,2.02476 -11.0623,4.64427 -17.7454,10.31396 -8.1576,6.92059 -9.9173,7.79511 -19.6866,9.78379 -11.5168,2.34438 -23.7974,8.61142 -32.7843,16.73066 -2.9333,2.65007 -8.8323,5.82547 -14.2368,7.66367 -10.6473,3.62137 -15.0407,6.08159 -15.0407,8.42252 0,2.85017 5.576,3.22701 18.0018,1.21661 8.7204,-1.41089 13.6417,-1.58513 18,-0.63726 15.1312,3.2908 21.2128,2.94112 36.6649,-2.10814 32.9439,-10.76501 49.5789,-11.4489 68.3167,-2.80861 10.7838,4.9726 11.0988,5.03171 17.3333,3.25292 8.7828,-2.50581 26.4652,-2.06045 33.082,0.83324 12.6776,5.54417 14.4357,5.90575 23.9347,4.92227 5.1333,-0.5315 24.4833,-0.8752 43,-0.76379 z M 126,426.67537 c -5.86667,-0.59885 -21.76667,-0.76401 -35.333332,-0.36701 -26.762846,0.78314 -37.305951,-0.4721 -43.252317,-5.1495 -4.208717,-3.31058 -4.340096,-6.5142 -0.41435,-10.1038 4.953525,-4.52937 10.880277,-6.90885 21.194337,-8.50913 6.875187,-1.06673 10.933468,-2.48548 13.651407,-4.77248 8.00738,-6.73776 23.437975,-12.44011 33.663065,-12.44011 1.85766,0 7.67318,-1.88536 12.92338,-4.18969 7.98556,-3.50488 11.3302,-4.21316 20.46279,-4.33333 10.58897,-0.13932 11.29036,0.0513 23.34433,6.34546 8.92641,4.66104 15.80791,7.16306 24.42736,8.88142 17.33985,3.45685 26.01009,6.70108 29.09432,10.88649 2.42279,3.28781 2.47385,3.85264 0.60615,6.70313 -2.92559,4.46502 -23.7421,10.7876 -40.36714,12.26072 -4.4,0.38987 -11.34641,1.59007 -15.43648,2.6671 -9.50916,2.50404 -30.85641,3.51993 -44.56352,2.12073 z M 72.165698,416.47129 c 4.022266,-1.51352 9.561303,-2.13919 17.834303,-2.01447 10.614259,0.16003 13.616699,-0.37925 25.999999,-4.66993 22.05556,-7.64203 34.11932,-7.65161 50.51068,-0.0401 5.41732,2.51557 6.57274,2.59126 15.82412,1.03676 7.9861,-1.34191 11.65047,-1.34494 18.34034,-0.0152 6.73946,1.3396 9.54737,1.32937 14.48386,-0.0528 8.02035,-2.24556 9.82383,-4.39932 6.48207,-7.74108 -2.64428,-2.64431 -22.69444,-8.30776 -29.41165,-8.30776 -2.12691,0 -10.30332,-3.3 -18.16982,-7.33334 -13.81622,-7.0839 -14.66512,-7.33333 -24.95766,-7.33333 -8.79428,0 -12.20746,0.67071 -19.54512,3.84076 -4.88958,2.11241 -13.69015,4.5306 -19.55682,5.37376 -11.140885,1.60116 -18.035415,4.47797 -26.168419,10.91908 -3.589695,2.84293 -7.195728,4.16545 -14,5.13452 -8.656231,1.23283 -19.443962,5.28065 -21.065464,7.90431 -0.405215,0.65564 0.0067,1.7955 0.91523,2.53301 4.125512,3.34872 14.666154,3.70775 22.484351,0.76584 z m 331.167642,6.08415 c -7.40702,-1.38618 -46.76307,-2.10667 -80.91507,-1.48132 -25.10003,0.45958 -34.50095,-0.80067 -49.08493,-6.58015 -14.55012,-5.76607 -17.85662,-11.00569 -11,-17.43115 9.13732,-8.56273 26.45006,-13.33553 46.33333,-12.77322 L 322,384.66668 l 6.3127,-4.9063 c 10.77286,-8.37277 21.99196,-13.06692 36.98521,-15.47488 l 13.66143,-2.19407 5.50409,-7.0474 c 6.277,-8.03705 13.744,-13.7972 23.08074,-17.80482 9.68441,-4.15686 15.96561,-4.91948 31.24506,-3.79356 20.84644,1.53614 37.55095,9.29237 50.75407,23.56612 l 4.87664,5.27206 15.12336,0.72655 c 17.52875,0.84211 28.33025,3.80843 39.92247,10.96355 4.97804,3.07263 12.52977,6.01637 20.83757,8.12271 20.22457,5.12768 28.79667,9.17721 35.715,16.87205 6.75632,7.51467 7.28251,10.01107 2.96505,14.06711 -9.82453,9.22968 -30.00838,11.77909 -69.65005,8.79748 -46.19591,-3.47459 -57.11533,-3.63323 -74.66667,-1.08484 -18.35862,2.66561 -51.52402,3.64273 -61.33333,1.807 z m 176.67547,-13.30335 c 2.56182,-0.77803 10.05786,-1.85151 16.65786,-2.38549 l 12,-0.97091 -6.10857,-6.04339 c -6.67043,-6.59922 -17.74081,-11.46078 -34.97748,-15.36036 -5.72521,-1.29525 -13.60479,-4.47214 -19.58061,-7.89453 -12.34822,-7.07188 -22.90011,-9.86693 -41.15166,-10.90051 l -14.10726,-0.79888 -6.70387,-6.60773 c -13.26855,-13.07824 -26.83609,-19.84384 -44.69901,-22.28962 -12.08618,-1.65482 -23.21624,-0.32056 -32.84111,3.93699 -7.63883,3.379 -19.29752,13.13997 -23.16072,19.39075 -3.11588,5.0416 -6.8158,6.48758 -20.66971,8.078 -10.69276,1.22752 -21.17844,5.611 -33.04468,13.81412 l -9.80687,6.77948 -15.90756,0.0159 c -9.26393,0.009 -18.80088,0.78613 -22.83534,1.86026 -8.90546,2.37098 -18.25556,7.53474 -18.8045,10.38511 -0.77328,4.01533 3.67203,4.79369 19.17087,3.3568 10.02297,-0.92923 19.66749,-0.93643 30,-0.0224 14.52119,1.28457 15.68512,1.19483 25.07368,-1.93313 15.23335,-5.07527 28.42528,-6.92966 43.03709,-6.04974 l 12.8827,0.77579 10.45064,-6.23168 c 5.74785,-3.42743 13.45064,-7.15879 17.11731,-8.29192 8.32862,-2.57383 28.09725,-4.39984 38.66666,-3.57161 9.92699,0.77789 30.65194,8.48353 38.31036,14.244 12.87712,9.68581 14.63543,10.33608 25.32851,9.36709 7.83463,-0.70995 12.17507,-0.29267 21.74165,2.09025 6.57406,1.63751 13.45282,3.78458 15.28615,4.77127 4.0536,2.18161 12.37915,2.39833 18.67547,0.48615 z M 2186,317.20959 c -4.4,-0.58576 -26.3,-1.66884 -48.6666,-2.40684 -41.2662,-1.36161 -69.7866,-3.84053 -88.14,-7.6609 -9.6238,-2.00324 -10.9815,-1.96808 -26.6667,0.69037 -22.4884,3.81151 -51.1025,5.84599 -67.1933,4.77748 C 1948,312.12273 1933,309.99098 1922,307.87246 c -14.4336,-2.77979 -24.082,-3.85853 -34.6666,-3.87589 -17.524,-0.0288 -44.0739,-2.11586 -53.3334,-4.19256 -11.0397,-2.47596 -14,-4.52407 -14,-9.68618 0,-5.6335 6.339,-12.19368 18.6667,-19.31804 17.4024,-10.05709 32.4656,-13.52045 59.2971,-13.63365 l 18.7029,-0.0789 6.3539,-7.11368 c 13.561,-15.18263 33.6766,-24.25752 56.8349,-25.6402 12.5019,-0.74646 12.5325,-0.75703 19.0887,-6.57981 9.516,-8.45153 16.7338,-12.6692 25.0558,-14.641 8.9291,-2.11565 30.0464,-2.29629 40.5899,-0.34722 7.6107,1.40692 7.8192,1.36286 11.9116,-2.51739 8.166,-7.74277 16.7144,-10.81645 33.4853,-12.04004 l 11.9868,-0.87455 4.3014,-6.5823 c 11.8646,-18.1565 38.6353,-39.41614 60.9064,-48.36802 28.8012,-11.57671 41.0817,-14.07435 69.4853,-14.13199 29.6325,-0.0601 44.2609,3.12464 69.4123,15.11195 14.3526,6.84056 23.4285,13.62491 36.1518,27.02379 9.2584,9.75011 24.2064,30.99795 29.0718,41.32412 1.9438,4.12565 4.1422,5.90521 12.0728,9.77227 l 9.696,4.72802 5.3349,-3.53046 c 7.4448,-4.92672 16.2725,-7.31763 30.2604,-8.19568 20.3796,-1.2793 40.0493,4.68844 56.5733,17.1642 l 7.2787,5.49543 12.7407,0.0944 c 10.9481,0.0811 13.8253,0.6026 20.4502,3.70686 10.0716,4.71934 18.6614,11.86304 23.8,19.7933 3.8299,5.91045 4.6496,6.45654 10.9812,7.31536 10.5795,1.43494 20.2058,5.58776 27.6175,11.91432 3.9377,3.36116 8.7632,6.148 11.5509,6.67098 7.1863,1.34815 18.3431,5.7871 22.2302,8.84468 4.3901,3.45331 4.71,9.74412 0.607,11.93995 -1.5602,0.83505 -12.5288,1.93949 -24.3745,2.45431 -11.8456,0.51481 -22.1239,1.29846 -22.8407,1.74144 -4.6394,2.86736 -23.7806,5.04186 -44.8678,5.09713 -19.9647,0.0523 -26.4096,-0.5068 -47.7467,-4.14213 -23.3601,-3.98 -25.6553,-4.14184 -43.3333,-3.05556 -22.4466,1.37929 -40.772,1.2353 -64,-0.50286 -22.8146,-1.70722 -44.8182,-0.094 -59.4544,4.35904 -25.7222,7.8258 -38.9924,10.45502 -67.0658,13.28763 -20.9125,2.11008 -68.6982,2.42521 -82.8132,0.54613 z m -328.3989,-23.99346 c 3.8861,-0.79779 10.8788,-2.59779 15.5393,-4 10.2944,-3.09719 27.1167,-3.3435 37.5263,-0.54946 10.1836,2.73338 14.9203,2.50866 29.4037,-1.39501 18.2147,-4.90933 38.2859,-7.41475 55.9296,-6.98149 12.648,0.31057 16.2248,-0.0505 20.4235,-2.06216 8.5371,-4.09004 27.6716,-5.60584 40.2432,-3.18799 10.2249,1.96653 10.9151,1.93987 16.6667,-0.64404 11.0478,-4.96329 24.5084,-7.72516 45.3333,-9.3016 15.7885,-1.19519 21.4865,-2.12737 24.1401,-3.94929 4.8235,-3.31172 19.3263,-11.39802 26.5266,-14.79027 10.3782,-4.88951 42.6156,-13.44515 61.6578,-16.36369 17.1831,-2.63359 48.1944,-2.5691 60.3422,0.12546 5.1333,1.13867 12.9333,2.87606 17.3333,3.86087 10.8628,2.43132 32.4008,11.41701 43.634,18.20424 l 9.2296,5.57655 6.9015,-2.0858 c 15.9161,-4.81022 21.1012,-5.3786 42.1081,-4.61591 30.8328,1.11945 47.0577,4.98132 71.6429,17.05253 13.24,6.50082 13.6486,6.60591 20,5.1453 9.2928,-2.13703 35.7636,-2.19179 44.4839,-0.092 4.0333,0.9712 13.0999,3.50697 20.1477,5.63506 9.772,2.95058 15.483,3.86926 24.0532,3.86926 6.1814,0 14.5148,0.87132 18.519,1.93625 4.0041,1.06495 11.7072,3.11657 17.1178,4.55916 9.5096,2.53539 13.4956,2.53805 13.4956,0.009 0,-2.1841 -8.1304,-6.21296 -17.069,-8.4583 -6.1487,-1.54448 -11.1666,-4.00176 -16.7638,-8.2092 -9.8258,-7.3863 -14.925,-9.57744 -25.9082,-11.13284 -4.6983,-0.66538 -8.707,-1.39598 -8.9079,-1.62359 -0.2011,-0.2276 -2.2737,-3.53952 -4.6061,-7.35981 -4.6078,-7.54738 -13.4347,-14.76396 -23.6127,-19.30491 -5.0835,-2.26801 -9.2077,-2.91027 -19.2936,-3.00453 -12.6093,-0.11787 -12.9327,-0.20134 -18.9551,-4.89339 -10.2953,-8.02096 -24.477,-14.43048 -36.8836,-16.66976 -18.4614,-3.33214 -37.9809,-0.57323 -47.9426,6.77629 -5.2608,3.88131 -9.4611,4.26463 -14.0174,1.27923 -1.7597,-1.15302 -5.7534,-3.40302 -8.8749,-5 -4.2788,-2.18907 -6.6296,-4.7082 -9.5532,-10.23694 -10.9693,-20.74446 -32.3203,-46.35604 -46.9452,-56.3135 -7.1977,-4.90056 -24.0441,-13.30696 -33.0705,-16.50219 -3.0779,-1.08954 -10.9962,-3.21411 -17.5962,-4.72127 -15.4825,-3.53555 -46.2392,-3.83023 -64.1872,-0.61497 -23.2517,4.1654 -52.6056,17.26263 -70.3693,31.39765 -8.8976,7.08002 -26.1101,24.66624 -26.1101,26.67698 0,0.66332 -1.5534,3.05208 -3.4519,5.30833 -3.1503,3.74384 -4.1528,4.10231 -11.4741,4.10231 -8.4648,0 -21.7766,2.91585 -27.997,6.13249 -2.0392,1.05456 -5.8405,3.79 -8.4473,6.07877 l -4.7396,4.1614 -9.2019,-1.51966 c -11.76,-1.94212 -28.5701,-1.94511 -37.6226,-0.007 -9.4094,2.01487 -19.4811,7.86321 -26.1376,15.17743 -5.2872,5.80963 -5.6616,5.97625 -13.4296,5.97625 -24.0911,0 -48.3276,10.17775 -62.0291,26.048 l -6.2897,7.28534 h -18.4608 c -32.1032,0 -55.3651,7.09152 -71.4656,21.78676 -6.1262,5.5913 -6.4338,6.16806 -4.4007,8.25062 4.254,4.35763 20.2573,5.88 33.4152,3.17874 z"
         id="path487"
         sodipodi:nodetypes="ccccssssssscssscsscsscssssccsssssscssscssssssscsscsscsssssssscssssssscssccsssssssssssssssssssssssssssssssssssssssssssssssssssscsssssssssssssscsssssssssssscssssssssssssssssscssssssscssssssssssscccsssssssssssssssssssscsssssssssscsssssssssssssssssssssssssssssssssssssssssssscssssssssssscssssssssssssssssssssssssssscsssssssssscssssssssssssssssssssssssssssssssssssssssssssssssscssssssscsscsssscsssssssssscsssscssssssccsssssscsssssssssssssssssssscssssssscssssssscssscssssssssssssssssssssssssssssssssscssssssssssssssssssssssssssssssssscssssscsssss" />
      <path
         style="fill:#91d3f5;stroke-width:1.33333"
         d="m 0,1339.8567 v -126.81 l 23,0.9242 c 27.027193,1.0859 51.429276,-0.5142 90.33333,-5.9237 34.24709,-4.7619 48.57746,-5.6526 88.66667,-5.5114 50.35454,0.1775 79.41823,-2.2057 104.66667,-8.5823 4.03333,-1.0186 13.03333,-2.7602 20,-3.8702 6.96667,-1.11 20.16667,-3.2372 29.33333,-4.7272 9.16667,-1.49 27.76667,-3.2805 41.33334,-3.979 13.56667,-0.6985 34.56667,-2.2074 46.66667,-3.3531 12.1,-1.1457 40.9,-2.6566 64,-3.3575 44.44886,-1.3486 55.73556,-2.4156 62.48828,-5.9076 3.43541,-1.7765 4.17838,-2.9642 4.17838,-6.6798 0,-3.6838 -1.10762,-5.4941 -5.99272,-9.7941 -11.73265,-10.3275 -33.45492,-19.2247 -51.71201,-21.1807 -6.78889,-0.7273 -8.13607,-1.3825 -11.33333,-5.5119 -9.35238,-12.0788 -27.97328,-29.2464 -35.67344,-32.8892 -19.77094,-9.3531 -24.3593,-10.2378 -50.86651,-9.8079 -13.33457,0.2162 -24.62632,0.012 -25.09278,-0.455 -0.46645,-0.4664 -1.76093,-4.3563 -2.87664,-8.6442 -1.11569,-4.2878 -5.0665,-13.7179 -8.77958,-20.9558 -11.01642,-21.4741 -24.9349,-33.5059 -49.38454,-42.6903 -25.71397,-9.6592 -62.85858,-10.0488 -80.89289,-0.8484 l -5.18716,2.6463 -7.14413,-3.2707 c -10.63787,-4.8702 -23.79939,-5.7213 -32.8426,-2.1238 l -7.11168,2.8291 -4.06636,-3.4217 c -8.51158,-7.16196 -14.19852,-9.10186 -26.97431,-9.20127 l -11.93068,-0.0928 -2.91765,-8.14395 C 147.06443,969.47734 128.92395,939.05623 115.3115,923.83153 96.777297,903.10215 56.268307,887.26701 15,884.61931 L 0,883.65694 V 441.82848 0 h 1333.3334 1333.3333 v 346.00001 c 0,293.13462 -0.2808,346.00001 -1.8383,346.00001 -2.6578,0 -4.2834,4.59921 -8.0633,22.81354 -0.5827,2.80718 -2.2229,4.02736 -8.4817,6.30947 -16.0742,5.86092 -29.0598,18.16569 -34.0531,32.26768 -2.2647,6.39587 -2.6875,6.82253 -6,6.05416 -9.3192,-2.16168 -22.7989,-3.47067 -28.0616,-2.72499 -10.6608,1.51055 -26.3532,8.43932 -33.3396,14.72063 -3.8251,3.43913 -7.8596,5.89284 -9.6893,5.89284 -1.7243,0 -8.8362,-2.45221 -15.8042,-5.44936 -6.9678,-2.99715 -14.4689,-6.22485 -16.6689,-7.17267 -19.9928,-8.61345 -54.6851,-16.25045 -80.6667,-17.75762 -43.0796,-2.499 -74.9573,1.97416 -95.6508,13.42201 -15.4113,8.52569 -30.4648,23.93668 -37.4025,38.29097 -3.0127,6.23334 -6.2537,14.26255 -7.2024,17.84271 -1.2887,4.86308 -2.5703,6.83767 -5.0679,7.80747 -9.1057,3.53569 -12.0657,5.14719 -16.3266,8.88827 l -4.6276,4.06306 -7.5903,-2.66778 c -33.9331,-11.92654 -70.2393,-9.52463 -90.5836,5.99273 -2.4567,1.87379 -5.9968,3.40688 -7.8671,3.40688 -5.7953,0 -21.3516,5.43715 -27.3354,9.55415 -3.1352,2.1571 -8.0943,7.16244 -11.0202,11.12296 -4.3905,5.94324 -6.1934,7.33344 -10.3226,7.95958 -11.9238,1.80811 -18.1915,3.55331 -21.6783,6.03611 -2.0508,1.46036 -8.1821,3.50725 -13.6251,4.54865 -14.1138,2.70044 -23.5465,8.43935 -23.6572,14.39327 -0.124,6.694 15.3007,11.69757 36.2208,11.74925 12.3528,0.0305 28.3018,2.13486 65.0702,8.58542 10.6333,1.86549 26.2333,3.72536 34.6666,4.13304 8.4334,0.40769 18.9334,0.92336 23.3334,1.14593 4.4,0.22259 17.3,-0.3056 28.6666,-1.17372 21.4388,-1.63739 40.0896,-1.09987 69.0535,1.99015 13.2259,1.41101 22.9991,1.44293 50.6667,0.1655 46.7377,-2.15789 58.0066,-1.98781 80.361,1.21288 23.4288,3.35454 65.1051,5.32066 77.9188,3.6759 21.2776,-2.73118 27.5959,-3.80918 46.6667,-7.96211 18.1397,-3.95017 22.1083,-4.35816 42.6667,-4.38624 20.3992,-0.0279 46.4669,2.65979 64.3333,6.63293 l 3,0.66715 v 271.30798 271.3079 H 1333.3333 0 Z M 2182,1171.582 c 5.1334,-1.2113 11.0087,-2.2128 13.0563,-2.2255 10.8335,-0.067 36.0767,-6.9604 40.6104,-11.0892 3.9335,-3.5822 3.7843,-5.6881 -0.722,-10.1944 -4.0303,-4.0303 -11.896,-6.7022 -29.3561,-9.972 -8.0356,-1.5048 -13.5286,-3.5251 -20,-7.3557 -4.9071,-2.9046 -11.9219,-5.9516 -15.5886,-6.7711 -9.479,-2.1186 -22.9333,-0.4739 -32.2792,3.946 -4.2596,2.0145 -11.5026,4.0879 -16.0956,4.6076 -11.0742,1.2529 -17.8946,3.7896 -26.1388,9.7218 -5.2088,3.748 -9.1136,5.3074 -16.5304,6.6011 -13.0704,2.28 -23.4746,7.8587 -24.0524,12.8967 -0.5641,4.9205 1.5379,7.2353 8.2518,9.087 9.8385,2.7136 19.4636,3.1674 64.8446,3.0579 36.5934,-0.088 46.3536,-0.5059 54,-2.3102 z M 542.00001,919.95593 c 5.13333,-0.68227 18.73337,-1.83024 30.2223,-2.55104 24.73498,-1.55186 32.20784,-3.16938 35.81228,-7.75168 3.74378,-4.75943 3.27786,-8.06262 -1.81469,-12.8655 -8.72017,-8.22418 -39.13993,-16.78769 -59.63413,-16.78769 h -9.3197 l -8.29969,-7.72029 c -4.56484,-4.24616 -10.99971,-9.01103 -14.29971,-10.5886 -8.8524,-4.23191 -26.94096,-7.51606 -35.71648,-6.48467 -6.8271,0.80239 -7.78636,0.54797 -14.13713,-3.74944 -9.17911,-6.21129 -18.86264,-8.79033 -33.00504,-8.79033 -16.98547,0 -27.37611,4.13873 -40.77823,16.24253 -3.81685,3.44709 -6.89265,5.0908 -9.52621,5.0908 -10.37032,0 -24.9615,7.05503 -41.70348,20.1642 -2.45672,1.92364 -9.41027,5.12075 -15.45234,7.10469 C 313.75848,894.74594 308,898.99563 308,903.33335 c 0,3.41307 5.43804,8.39374 10.30994,9.44279 2.76286,0.59493 13.4234,1.13515 23.69006,1.20049 14.21419,0.0905 20.89291,0.7435 28,2.73776 8.21019,2.3038 12.62254,2.56154 36.66667,2.14178 50.48104,-0.8813 76.59679,-0.6615 87.33334,0.73504 13.69,1.78069 36.0671,1.95072 48,0.36472 z M 200.78284,720.67455 c 15.68452,-2.36404 27.87395,-2.52573 43.25214,-0.57375 16.83026,2.13631 38.88504,1.84283 54.46448,-0.72474 13.96362,-2.30127 33.92668,-3.02464 60.83388,-2.20436 8.07209,0.24608 17.11936,-0.21403 20.1216,-1.02332 6.68256,-1.80138 10.44525,-5.5952 9.2583,-9.33494 -0.93282,-2.93908 -22.53522,-15.31606 -29.3799,-16.83306 -11.64627,-2.58119 -12.49276,-3.19168 -16.99364,-12.25618 -4.85632,-9.78033 -11.36891,-16.07458 -22.02818,-21.28968 -6.26028,-3.06287 -8.15077,-3.37729 -15.93553,-2.65033 -8.11817,0.75808 -9.53792,0.47757 -17.55251,-3.468 -12.50893,-6.15812 -24.2529,-6.62527 -39.95692,-1.58935 -10.21261,3.27495 -12.42222,4.59012 -19.2971,11.4858 -4.97428,4.98935 -8.86639,7.78738 -10.83236,7.78738 -5.0364,0 -14.40418,3.83877 -19.66664,8.0591 -5.86212,4.70122 -8.87068,5.92459 -17.73712,7.21244 -3.66667,0.53259 -9.36667,2.06335 -12.66667,3.40168 -3.3,1.33835 -11.4,3.37035 -18,4.51559 -6.6,1.14523 -15.17479,3.02685 -19.05508,4.18139 -8.42009,2.50529 -15.79544,8.49021 -14.52917,11.79005 1.17975,3.07439 11.01975,7.07741 20.22418,8.22743 4.19451,0.52406 12.51646,2.33345 18.49322,4.02084 13.12953,3.7068 28.11089,4.11048 46.98302,1.26601 z M 2547.3334,517.27291 c 5.1333,-0.71859 18.848,-1.89324 30.477,-2.61035 24.016,-1.48094 30.4906,-2.84232 35.0096,-7.36127 6.3208,-6.32092 2.5548,-12.91808 -11.0926,-19.43143 -10.7371,-5.12428 -36.037,-10.50321 -49.493,-10.52252 l -9.7657,-0.014 -7.6405,-7.28785 c -12.5283,-11.94995 -33.2015,-19.18729 -49.9975,-17.50329 -7.4516,0.74712 -8.2113,0.53497 -15.4895,-4.32514 -9.5178,-6.35578 -19.6945,-8.65561 -35.476,-8.01725 -9.8917,0.40012 -13.3188,1.16765 -20.6044,4.61465 -4.8065,2.27408 -11.8766,6.92114 -15.7112,10.32679 -3.9161,3.47805 -8.2906,6.19209 -9.9806,6.19209 -10.1163,0 -29.0822,8.68448 -39.4791,18.0775 -3.0915,2.79288 -9.1909,5.89294 -16.7437,8.5099 -17.1531,5.94346 -21.0844,10.48138 -15.372,17.74362 3.5456,4.50738 14.6354,6.38604 35.3592,5.98988 13.003,-0.24856 17.4984,0.19222 24,2.35329 7.2057,2.39512 10.7801,2.61003 36,2.16439 49.1228,-0.86801 77.0384,-0.62112 88,0.77829 14.0848,1.79814 36.3888,1.94808 48,0.3227 z M 170.56352,424.55464 c 4.09007,-1.07703 11.03648,-2.27723 15.43648,-2.6671 16.62504,-1.47312 37.44155,-7.7957 40.36714,-12.26072 1.8677,-2.85049 1.81664,-3.41532 -0.60615,-6.70313 -3.08423,-4.18541 -11.75447,-7.42964 -29.09432,-10.88649 -8.61945,-1.71836 -15.50095,-4.22038 -24.42736,-8.88142 -12.05397,-6.29413 -12.75536,-6.48478 -23.34433,-6.34546 -9.13259,0.12013 -12.47723,0.82845 -20.46279,4.33333 -5.2502,2.30433 -11.06572,4.18969 -12.92338,4.18969 -10.22509,0 -25.655685,5.70235 -33.663065,12.44011 -2.717939,2.287 -6.77622,3.70575 -13.651407,4.77248 -10.31406,1.60028 -16.240812,3.97976 -21.194337,8.50913 -3.925746,3.5896 -3.794367,6.79322 0.41435,10.1038 5.946366,4.6774 16.489471,5.93264 43.252317,5.1495 13.566662,-0.397 29.466662,-0.23184 35.333332,0.36701 13.70711,1.3992 35.05436,0.38331 44.56352,-2.12073 z m 294.10315,-3.8062 c 17.55134,-2.54839 28.47076,-2.38975 74.66667,1.08484 39.64167,2.98161 59.82552,0.4322 69.65005,-8.79748 4.31746,-4.05604 3.79127,-6.55244 -2.96505,-14.06711 -6.91833,-7.69484 -15.49043,-11.74437 -35.715,-16.87205 -8.3078,-2.10634 -15.85953,-5.05008 -20.83757,-8.12271 -11.59222,-7.15512 -22.39372,-10.12144 -39.92247,-10.96355 l -15.12336,-0.72655 -4.87664,-5.27206 c -13.20312,-14.27375 -29.90763,-22.02998 -50.75407,-23.56612 -15.27945,-1.12592 -21.56065,-0.3633 -31.24506,3.79356 -9.33674,4.00762 -16.80374,9.76777 -23.08074,17.80482 l -5.50409,7.0474 -13.66143,2.19407 c -14.99325,2.40796 -26.21235,7.10211 -36.98521,15.47488 L 322,384.66668 308.66667,384.2896 c -19.88327,-0.56231 -37.19601,4.21049 -46.33333,12.77322 -6.85662,6.42546 -3.55012,11.66508 11,17.43115 14.58398,5.77948 23.9849,7.03973 49.08493,6.58015 34.152,-0.62535 73.50805,0.0952 80.91507,1.48132 9.80931,1.83573 42.97471,0.85861 61.33333,-1.807 z M 2268.8132,316.66346 c 28.0734,-2.83261 41.3436,-5.46183 67.0658,-13.28763 14.6362,-4.45302 36.6398,-6.06626 59.4544,-4.35904 23.228,1.73816 41.5534,1.88215 64,0.50286 17.678,-1.08628 19.9732,-0.92444 43.3333,3.05556 21.3371,3.63533 27.782,4.19444 47.7467,4.14213 21.0872,-0.0552 40.2284,-2.22977 44.8678,-5.09713 0.7168,-0.44298 10.9951,-1.22663 22.8407,-1.74144 11.8457,-0.51482 22.8143,-1.61926 24.3745,-2.45431 4.103,-2.19583 3.7831,-8.48664 -0.607,-11.93995 -3.8871,-3.05758 -15.0439,-7.49653 -22.2302,-8.84468 -2.7877,-0.52298 -7.6132,-3.30982 -11.5509,-6.67098 -7.4117,-6.32656 -17.038,-10.47938 -27.6175,-11.91432 -6.3316,-0.85882 -7.1513,-1.40491 -10.9812,-7.31536 -5.1386,-7.93026 -13.7284,-15.07396 -23.8,-19.7933 -6.6249,-3.10426 -9.5021,-3.6258 -20.4502,-3.70686 l -12.7407,-0.0944 -7.2787,-5.49543 c -16.524,-12.47576 -36.1937,-18.4435 -56.5733,-17.1642 -13.9879,0.87805 -22.8156,3.26896 -30.2604,8.19568 l -5.3349,3.53046 -9.696,-4.72802 c -7.9306,-3.86706 -10.129,-5.64662 -12.0728,-9.77227 -4.8654,-10.32617 -19.8134,-31.57401 -29.0718,-41.32412 -12.7233,-13.39888 -21.7992,-20.18323 -36.1518,-27.02379 -25.1514,-11.98731 -39.7798,-15.17208 -69.4123,-15.11195 -28.4036,0.0576 -40.6841,2.55528 -69.4853,14.13199 -22.2711,8.95188 -49.0418,30.21152 -60.9064,48.36802 l -4.3014,6.5823 -11.9868,0.87455 c -16.7709,1.22359 -25.3193,4.29727 -33.4853,12.04004 -4.0924,3.88025 -4.3009,3.92431 -11.9116,2.51739 -10.5435,-1.94907 -31.6608,-1.76843 -40.5899,0.34722 -8.322,1.9718 -15.5398,6.18947 -25.0558,14.641 -6.5562,5.82278 -6.5868,5.83335 -19.0887,6.57981 -23.1583,1.38268 -43.2739,10.45757 -56.8349,25.6402 l -6.3539,7.11368 -18.7029,0.0789 c -26.8315,0.1132 -41.8947,3.57656 -59.2971,13.63365 -12.3277,7.12436 -18.6667,13.68454 -18.6667,19.31804 0,5.16211 2.9603,7.21022 14,9.68618 9.2595,2.0767 35.8094,4.1638 53.3334,4.19256 10.5846,0.0173 20.233,1.0961 34.6666,3.87589 11,2.11852 26,4.25027 33.3334,4.73724 16.0908,1.06851 44.7049,-0.96597 67.1933,-4.77748 15.6852,-2.65845 17.0429,-2.69361 26.6667,-0.69037 18.3534,3.82037 46.8738,6.29929 88.14,7.6609 22.3666,0.738 44.2666,1.82108 48.6666,2.40684 14.115,1.87908 61.9007,1.56395 82.8132,-0.54613 z"
         id="path485"
         sodipodi:nodetypes="ccsssssssssssssssscsssscsscsscssscccccssssssssssssssssscsssssssscssssssssssssccccccsssssssssssssssssssscsssssssssssssssssssssssssssssssssssssssssssscsssssssssssssssssssssssssssssssssssssscsssscsscsssssssssssssssssssssscssscssssssscssssssscsssssssssssss" />
    </g>
  </g>
</svg>
